<svg width="180" height="56" viewBox="0 0 180 56" fill="none" xmlns="http://www.w3.org/2000/svg">
<mask id="mask0" mask-type="alpha" maskUnits="userSpaceOnUse" x="0" y="0" width="41" height="56">
<path d="M20.6404 1L33.9954 20.7389C36.6389 23.4081 38.4395 26.8094 39.1695 30.5127C39.8995 34.216 39.5261 38.0548 38.0965 41.5436C36.6669 45.0324 34.2453 48.0145 31.1381 50.1126C28.0309 52.2107 24.3777 53.3306 20.6404 53.3306C16.9032 53.3306 13.25 52.2107 10.1428 50.1126C7.03558 48.0145 4.61403 45.0324 3.18443 41.5436C1.75483 38.0548 1.3814 34.216 2.1114 30.5127C2.84139 26.8094 4.642 23.4081 7.28547 20.7389L20.6404 1Z" fill="black"/>
<path d="M33.5815 12.5761L38.2882 27.7274C39.6153 31.2573 39.8765 35.1056 39.0387 38.7855C38.2009 42.4654 36.3017 45.8116 33.5815 48.4008C30.8612 50.99 27.442 52.7059 23.7565 53.3314C20.0709 53.957 16.2845 53.4641 12.8762 51.9151C9.46797 50.366 6.59094 47.8305 4.60906 44.6292C2.62718 41.4279 1.6295 37.7046 1.74221 33.9303C1.85492 30.156 3.07297 26.5003 5.24227 23.4255C7.41157 20.3507 10.4347 17.9951 13.9292 16.6565L33.5815 12.5761Z" fill="black"/>
<path d="M10.1428 10.35L27.9011 17.8546C31.286 19.4551 34.125 22.034 36.0591 25.265C37.9932 28.496 38.9355 32.234 38.7667 36.0062C38.5979 39.7783 37.3257 43.4152 35.111 46.4567C32.8962 49.4982 29.8385 51.8078 26.3245 53.0932C22.8105 54.3786 18.9981 54.5822 15.3696 53.6781C11.7411 52.774 8.45946 50.803 5.93979 48.0143C3.42013 45.2255 1.77564 41.7444 1.21433 38.0112C0.653018 34.278 1.20011 30.4605 2.78641 27.0415L10.1428 10.35Z" fill="black"/>
<path d="M20.6404 1L33.9954 20.7389C36.6389 23.4081 38.4395 26.8094 39.1695 30.5127C39.8995 34.216 39.5261 38.0548 38.0965 41.5436C36.6669 45.0324 34.2453 48.0145 31.1381 50.1126C28.0309 52.2107 24.3777 53.3306 20.6404 53.3306C16.9032 53.3306 13.25 52.2107 10.1428 50.1126C7.03558 48.0145 4.61403 45.0324 3.18443 41.5436C1.75483 38.0548 1.3814 34.216 2.1114 30.5127C2.84139 26.8094 4.642 23.4081 7.28547 20.7389L20.6404 1Z" stroke="black" stroke-width="2" stroke-linecap="round" stroke-linejoin="round"/>
<path d="M33.5815 12.5761L38.2882 27.7274C39.6153 31.2573 39.8765 35.1056 39.0387 38.7855C38.2009 42.4654 36.3017 45.8116 33.5815 48.4008C30.8612 50.99 27.442 52.7059 23.7565 53.3314C20.0709 53.957 16.2845 53.4641 12.8762 51.9151C9.46797 50.366 6.59094 47.8305 4.60906 44.6292C2.62718 41.4279 1.6295 37.7046 1.74221 33.9303C1.85492 30.156 3.07297 26.5003 5.24227 23.4255C7.41157 20.3507 10.4347 17.9951 13.9292 16.6565L33.5815 12.5761Z" stroke="black" stroke-width="2" stroke-linecap="round" stroke-linejoin="round"/>
<path d="M10.1428 10.35L27.9011 17.8546C31.286 19.4551 34.125 22.034 36.0591 25.265C37.9932 28.496 38.9355 32.234 38.7667 36.0062C38.5979 39.7783 37.3257 43.4152 35.111 46.4567C32.8962 49.4982 29.8385 51.8078 26.3245 53.0932C22.8105 54.3786 18.9981 54.5822 15.3696 53.6781C11.7411 52.774 8.45946 50.803 5.93979 48.0143C3.42013 45.2255 1.77564 41.7444 1.21433 38.0112C0.653018 34.278 1.20011 30.4605 2.78641 27.0415L10.1428 10.35Z" stroke="black" stroke-width="2" stroke-linecap="round" stroke-linejoin="round"/>
</mask>
<g mask="url(#mask0)">
<rect x="-14.8638" y="-81.8139" width="80.2001" height="146.037" fill="url(#paint0_linear)"/>
</g>
<path d="M62.0082 36.6463H58.1664C58.1299 37.2479 58.0297 37.7628 57.8656 38.1912C57.7015 38.6196 57.4782 38.9705 57.1957 39.244C56.9131 39.5174 56.5713 39.7179 56.1703 39.8455C55.7692 39.9731 55.3181 40.0369 54.8168 40.0369C54.4431 40.0369 54.1013 39.9959 53.7914 39.9139C53.4906 39.8227 53.2172 39.686 52.9711 39.5037C52.7432 39.3397 52.5381 39.1346 52.3558 38.8885C52.1827 38.6424 52.0323 38.3598 51.9047 38.0408C51.7224 37.576 51.5857 37.0337 51.4945 36.4139C51.4125 35.785 51.3715 35.074 51.3715 34.2811V31.574C51.3715 30.9907 51.3988 30.4484 51.4535 29.9471C51.5082 29.4367 51.5948 28.9718 51.7133 28.5526C51.8682 28.0148 52.0733 27.5454 52.3285 27.1443C52.5928 26.7342 52.9118 26.4197 53.2855 26.201C53.5043 26.0734 53.7413 25.9777 53.9965 25.9139C54.2608 25.8501 54.5433 25.8182 54.8441 25.8182C55.4092 25.8182 55.8923 25.8957 56.2933 26.0506C56.7035 26.1964 57.0453 26.4152 57.3187 26.7068C57.583 27.0076 57.7836 27.3813 57.9203 27.8279C58.0661 28.2746 58.1573 28.7941 58.1937 29.3865H62.0219C61.9307 28.3475 61.712 27.4132 61.3656 26.5838C61.0192 25.7544 60.5453 25.0526 59.9437 24.4783C59.3422 23.9041 58.613 23.4621 57.7562 23.1522C56.9086 22.8423 55.9379 22.6873 54.8441 22.6873C54.1058 22.6873 53.4131 22.783 52.766 22.9744C52.128 23.1567 51.5401 23.421 51.0023 23.7674C50.4008 24.1776 49.863 24.6789 49.389 25.2713C48.9151 25.8637 48.5323 26.5382 48.2406 27.2947C47.9854 27.9145 47.794 28.589 47.6664 29.3182C47.5388 30.0382 47.475 30.7993 47.475 31.6014V34.2811C47.475 35.1378 47.5433 35.949 47.6801 36.7147C47.8259 37.4803 48.031 38.1821 48.2953 38.8201C48.5687 39.4582 48.9014 40.0415 49.2933 40.5701C49.6944 41.0988 50.1501 41.5499 50.6605 41.9236C51.2165 42.3247 51.8409 42.6346 52.5336 42.8533C53.2354 43.063 53.9965 43.1678 54.8168 43.1678C55.8558 43.1678 56.8038 43.0174 57.6605 42.7166C58.5173 42.4067 59.2556 41.9692 59.8754 41.4041C60.4952 40.839 60.9873 40.1554 61.3519 39.3533C61.7256 38.5512 61.9444 37.6489 62.0082 36.6463ZM74.3812 42.8807H78.2367V42.6483C78.0453 42.2746 77.8995 41.8279 77.7992 41.3084C77.6989 40.7889 77.6488 40.1326 77.6488 39.3397V32.9959C77.6488 32.1391 77.4893 31.3872 77.1703 30.7401C76.8513 30.0838 76.4092 29.5415 75.8441 29.1131C75.279 28.6847 74.6091 28.3611 73.8344 28.1424C73.0687 27.9236 72.2393 27.8143 71.3461 27.8143C70.3526 27.8143 69.4685 27.9419 68.6937 28.1971C67.9281 28.4432 67.281 28.7804 66.7523 29.2088C66.2146 29.6372 65.8044 30.1339 65.5219 30.699C65.2484 31.2641 65.1117 31.8611 65.1117 32.4901H68.9125C68.9125 32.2257 68.9489 31.9842 69.0219 31.7654C69.1039 31.5467 69.2269 31.3598 69.391 31.2049C69.5733 31.0317 69.8103 30.8996 70.1019 30.8084C70.3936 30.7082 70.7399 30.658 71.141 30.658C71.5967 30.658 71.9932 30.7173 72.3304 30.8358C72.6768 30.9451 72.9639 31.1046 73.1918 31.3143C73.4105 31.5148 73.5746 31.7563 73.684 32.0389C73.7933 32.3123 73.848 32.6222 73.848 32.9686V33.8436H71.7289C70.6351 33.8436 69.6644 33.9438 68.8168 34.1443C67.9782 34.3358 67.2719 34.6183 66.6976 34.992C66.0596 35.4022 65.5811 35.9262 65.2621 36.5643C64.9431 37.1932 64.7836 37.9178 64.7836 38.7381C64.7836 39.3761 64.9112 39.9686 65.1664 40.5154C65.4216 41.0532 65.7771 41.518 66.2328 41.91C66.6885 42.3019 67.2308 42.6072 67.8597 42.826C68.4978 43.0447 69.195 43.1541 69.9515 43.1541C70.4164 43.1541 70.8493 43.1085 71.2504 43.0174C71.6514 42.9354 72.0205 42.8169 72.3578 42.6619C72.6859 42.5161 72.9867 42.3429 73.2601 42.1424C73.5336 41.9419 73.7751 41.7277 73.9847 41.4998C74.0303 41.7641 74.085 42.0148 74.1488 42.2518C74.2126 42.4887 74.2901 42.6984 74.3812 42.8807ZM70.7582 40.2147C70.4027 40.2147 70.0883 40.1736 69.8148 40.0916C69.5505 40.0005 69.3272 39.882 69.1449 39.7361C68.9626 39.5812 68.8213 39.3943 68.7211 39.1756C68.6299 38.9477 68.5844 38.7016 68.5844 38.4373C68.5844 38.1001 68.6482 37.7902 68.7758 37.5076C68.9034 37.216 69.0993 36.9653 69.3636 36.7557C69.628 36.5552 69.9698 36.4002 70.389 36.2908C70.8083 36.1723 71.3142 36.1131 71.9066 36.1131H73.848V38.6561C73.7386 38.8475 73.5883 39.0389 73.3969 39.2303C73.2054 39.4126 72.9776 39.5766 72.7133 39.7225C72.4489 39.8683 72.1527 39.9868 71.8246 40.0779C71.4965 40.1691 71.141 40.2147 70.7582 40.2147ZM82.7484 21.8807V24.9842H87.1781V39.7908H82.7484V42.8807H95.2582V39.7908H91.0199V21.8807H82.7484ZM105.321 40.119C104.71 40.119 104.204 39.9959 103.803 39.7498C103.411 39.5037 103.101 39.1756 102.873 38.7654C102.636 38.3644 102.472 37.8996 102.381 37.3709C102.29 36.8332 102.245 36.2772 102.245 35.7029V35.2928C102.245 34.7277 102.29 34.1808 102.381 33.6522C102.481 33.1235 102.65 32.6541 102.887 32.244C103.115 31.8338 103.425 31.5057 103.817 31.2596C104.209 31.0135 104.705 30.8904 105.307 30.8904C105.717 30.8904 106.095 30.9634 106.442 31.1092C106.788 31.2459 107.084 31.4328 107.33 31.6697C107.577 31.9067 107.763 32.1893 107.891 32.5174C108.019 32.8455 108.073 33.1919 108.055 33.5565H111.637C111.655 32.6815 111.509 31.893 111.2 31.1912C110.89 30.4803 110.457 29.8742 109.901 29.3729C109.336 28.8807 108.666 28.4979 107.891 28.2244C107.116 27.951 106.273 27.8143 105.362 27.8143C104.222 27.8143 103.22 28.0102 102.354 28.4022C101.497 28.7941 100.777 29.3273 100.194 30.0018C99.6104 30.6762 99.1729 31.4692 98.8812 32.3807C98.5896 33.283 98.4437 34.2537 98.4437 35.2928V35.7029C98.4437 36.742 98.5896 37.7173 98.8812 38.6287C99.182 39.5311 99.6241 40.3195 100.207 40.994C100.782 41.6684 101.502 42.2016 102.368 42.5936C103.233 42.9764 104.241 43.1678 105.389 43.1678C106.237 43.1678 107.039 43.0356 107.795 42.7713C108.561 42.4979 109.231 42.1242 109.805 41.6502C110.379 41.1762 110.83 40.6111 111.159 39.9549C111.496 39.2986 111.655 38.5877 111.637 37.8221H108.055C108.073 38.1684 108.009 38.4829 107.864 38.7654C107.727 39.048 107.531 39.2895 107.276 39.4901C107.021 39.6906 106.724 39.8455 106.387 39.9549C106.05 40.0643 105.694 40.119 105.321 40.119ZM121.385 34.7049L126.307 42.8807H130.873L123.928 31.7791L130.627 22.9744H125.924L121.084 29.66L119.28 32.0936V22.9744H115.424V42.8807H119.28V37.0154L121.385 34.7049ZM138.953 40.119C138.343 40.119 137.837 39.9959 137.436 39.7498C137.044 39.5037 136.734 39.1756 136.506 38.7654C136.269 38.3644 136.105 37.8996 136.014 37.3709C135.923 36.8332 135.877 36.2772 135.877 35.7029V35.2928C135.877 34.7277 135.923 34.1808 136.014 33.6522C136.114 33.1235 136.283 32.6541 136.52 32.244C136.748 31.8338 137.058 31.5057 137.45 31.2596C137.842 31.0135 138.338 30.8904 138.94 30.8904C139.35 30.8904 139.728 30.9634 140.075 31.1092C140.421 31.2459 140.717 31.4328 140.963 31.6697C141.209 31.9067 141.396 32.1893 141.524 32.5174C141.651 32.8455 141.706 33.1919 141.688 33.5565H145.27C145.288 32.6815 145.142 31.893 144.832 31.1912C144.523 30.4803 144.09 29.8742 143.534 29.3729C142.968 28.8807 142.299 28.4979 141.524 28.2244C140.749 27.951 139.906 27.8143 138.995 27.8143C137.855 27.8143 136.853 28.0102 135.987 28.4022C135.13 28.7941 134.41 29.3273 133.827 30.0018C133.243 30.6762 132.806 31.4692 132.514 32.3807C132.222 33.283 132.077 34.2537 132.077 35.2928V35.7029C132.077 36.742 132.222 37.7173 132.514 38.6287C132.815 39.5311 133.257 40.3195 133.84 40.994C134.414 41.6684 135.134 42.2016 136 42.5936C136.866 42.9764 137.873 43.1678 139.022 43.1678C139.87 43.1678 140.672 43.0356 141.428 42.7713C142.194 42.4979 142.864 42.1242 143.438 41.6502C144.012 41.1762 144.463 40.6111 144.791 39.9549C145.129 39.2986 145.288 38.5877 145.27 37.8221H141.688C141.706 38.1684 141.642 38.4829 141.496 38.7654C141.36 39.048 141.164 39.2895 140.909 39.4901C140.653 39.6906 140.357 39.8455 140.02 39.9549C139.683 40.0643 139.327 40.119 138.953 40.119ZM158.463 42.8807H162.319V42.6483C162.127 42.2746 161.981 41.8279 161.881 41.3084C161.781 40.7889 161.731 40.1326 161.731 39.3397V32.9959C161.731 32.1391 161.571 31.3872 161.252 30.7401C160.933 30.0838 160.491 29.5415 159.926 29.1131C159.361 28.6847 158.691 28.3611 157.916 28.1424C157.151 27.9236 156.321 27.8143 155.428 27.8143C154.435 27.8143 153.55 27.9419 152.776 28.1971C152.01 28.4432 151.363 28.7804 150.834 29.2088C150.297 29.6372 149.886 30.1339 149.604 30.699C149.33 31.2641 149.194 31.8611 149.194 32.4901H152.995C152.995 32.2257 153.031 31.9842 153.104 31.7654C153.186 31.5467 153.309 31.3598 153.473 31.2049C153.655 31.0317 153.892 30.8996 154.184 30.8084C154.476 30.7082 154.822 30.658 155.223 30.658C155.679 30.658 156.075 30.7173 156.412 30.8358C156.759 30.9451 157.046 31.1046 157.274 31.3143C157.493 31.5148 157.657 31.7563 157.766 32.0389C157.875 32.3123 157.93 32.6222 157.93 32.9686V33.8436H155.811C154.717 33.8436 153.746 33.9438 152.899 34.1443C152.06 34.3358 151.354 34.6183 150.78 34.992C150.142 35.4022 149.663 35.9262 149.344 36.5643C149.025 37.1932 148.866 37.9178 148.866 38.7381C148.866 39.3761 148.993 39.9686 149.248 40.5154C149.504 41.0532 149.859 41.518 150.315 41.91C150.771 42.3019 151.313 42.6072 151.942 42.826C152.58 43.0447 153.277 43.1541 154.034 43.1541C154.498 43.1541 154.931 43.1085 155.332 43.0174C155.733 42.9354 156.103 42.8169 156.44 42.6619C156.768 42.5161 157.069 42.3429 157.342 42.1424C157.616 41.9419 157.857 41.7277 158.067 41.4998C158.112 41.7641 158.167 42.0148 158.231 42.2518C158.295 42.4887 158.372 42.6984 158.463 42.8807ZM154.84 40.2147C154.485 40.2147 154.17 40.1736 153.897 40.0916C153.633 40.0005 153.409 39.882 153.227 39.7361C153.045 39.5812 152.903 39.3943 152.803 39.1756C152.712 38.9477 152.666 38.7016 152.666 38.4373C152.666 38.1001 152.73 37.7902 152.858 37.5076C152.985 37.216 153.181 36.9653 153.446 36.7557C153.71 36.5552 154.052 36.4002 154.471 36.2908C154.89 36.1723 155.396 36.1131 155.989 36.1131H157.93V38.6561C157.821 38.8475 157.67 39.0389 157.479 39.2303C157.287 39.4126 157.06 39.5766 156.795 39.7225C156.531 39.8683 156.235 39.9868 155.907 40.0779C155.578 40.1691 155.223 40.2147 154.84 40.2147ZM166.83 21.8807V24.9842H171.26V39.7908H166.83V42.8807H179.34V39.7908H175.102V21.8807H166.83Z" fill="url(#paint1_linear)"/>
<defs>
<linearGradient id="paint0_linear" x1="25.2363" y1="-8.7952" x2="25.2363" y2="64.2235" gradientUnits="userSpaceOnUse">
<stop stop-color="#0CE889"/>
<stop offset="1" stop-color="#05693E"/>
</linearGradient>
<linearGradient id="paint1_linear" x1="114.256" y1="68.8471" x2="118.394" y2="5.2364" gradientUnits="userSpaceOnUse">
<stop stop-color="#05693E"/>
<stop offset="1" stop-color="#0CE889"/>
</linearGradient>
</defs>
</svg>
